<svg width="1440" height="291" viewBox="0 0 1440 291" fill="none" xmlns="http://www.w3.org/2000/svg">
<g clip-path="url(#clip0_1_34)">
<rect width="1440" height="291" fill="#111111"/>
<path d="M696.25 96.868C699.814 96.868 701.542 94.834 701.542 92.188C701.542 89.524 699.814 87.814 696.376 87.814H686.35V100H689.374V96.868H696.25ZM696.142 90.244C697.366 90.244 698.302 90.712 698.302 92.188C698.302 94.096 697.33 94.348 696.124 94.348H689.374V90.244H696.142ZM717.747 97.948C717.549 98.038 717.333 98.056 717.189 98.056C716.307 98.056 716.775 97.372 716.397 93.97C716.271 92.854 715.911 92.098 715.407 91.486C714.651 90.586 713.085 89.956 709.593 89.956C706.371 89.956 704.301 90.586 703.005 91.612L704.517 93.124C705.615 92.44 707.145 92.062 709.323 92.062C713.013 92.062 713.445 92.89 713.589 94.168C712.725 93.88 711.087 93.664 709.053 93.664C705.993 93.664 702.789 94.096 702.789 96.76C702.789 99.028 704.643 100.216 708.153 100.216C711.105 100.216 713.139 99.766 714.147 99.19C714.435 99.766 714.993 100.162 716.199 100.162C716.721 100.162 717.369 100.072 717.747 99.784V97.948ZM713.751 95.86C713.769 96.706 713.805 97.21 713.841 97.624C712.977 97.948 710.835 98.254 709.053 98.254C706.281 98.254 705.813 97.678 705.813 96.778C705.813 95.77 706.407 95.41 709.755 95.41C711.249 95.41 713.031 95.68 713.751 95.86ZM722.509 100V93.988C723.499 92.818 726.163 92.53 728.161 92.53V89.956C725.857 89.956 723.301 90.676 722.257 91.882L722.113 90.172H719.485V100H722.509ZM733.63 100V91.936H735.34V90.172H733.63V87.814H730.714V90.172H729.058V91.936H730.714V100H733.63ZM750.349 100V94.258C750.349 90.874 747.829 89.956 745.075 89.956C742.699 89.956 740.791 90.496 739.711 91.198L739.621 90.172H736.993V100H740.017V93.322C740.953 92.53 742.483 92.044 744.571 92.044C746.533 92.044 747.307 92.89 747.307 94.258V100H750.349ZM766.203 95.716V95.284C766.203 91.558 764.799 89.956 759.381 89.956C754.863 89.956 752.451 91.198 752.451 95.086C752.451 98.956 754.863 100.216 759.381 100.216C762.909 100.216 765.015 99.388 765.825 97.678L763.107 96.958C762.495 97.768 761.235 98.254 759.363 98.254C756.843 98.254 755.565 97.552 755.367 95.716H766.203ZM755.439 94.042C755.727 92.494 757.041 91.918 759.363 91.918C761.847 91.918 763.035 92.584 763.269 94.042H755.439ZM771.481 100V93.988C772.471 92.818 775.135 92.53 777.133 92.53V89.956C774.829 89.956 772.273 90.676 771.229 91.882L771.085 90.172H768.457V100H771.481ZM791.715 92.458C791.139 91 789.213 89.956 785.253 89.956C780.393 89.956 778.503 91.18 778.503 93.124C778.503 95.626 781.509 96.148 783.867 96.148C784.731 96.148 785.523 96.112 786.243 96.112C787.683 96.112 788.781 96.31 788.781 97.12C788.781 97.966 787.737 98.38 785.181 98.38C782.571 98.38 781.455 97.732 781.023 96.958L778.269 97.624C779.115 99.406 781.383 100.378 784.965 100.378C789.915 100.378 791.715 98.974 791.715 96.868C791.715 94.726 790.005 94.042 786.585 94.042C785.829 94.042 784.947 94.06 784.119 94.06C782.895 94.06 781.437 93.988 781.437 93.034C781.437 92.26 782.877 91.882 785.271 91.882C787.377 91.882 788.871 92.476 789.105 93.268L791.715 92.458Z" fill="white"/>
<path d="M27.8035 179.954C27.8035 177.906 25.8185 175.735 22.3769 175.735C18.5105 175.735 14.2697 178.565 13.6133 184.221C12.9509 189.94 16.5109 192.466 20.0881 192.466C23.664 192.466 25.5465 191.073 27.4583 189.205C25.8076 187.126 23.6786 188.094 23.276 188.296C22.8307 188.519 22.2463 188.828 21.0592 188.828C19.6732 188.828 18.2677 188.201 18.2677 185.628C27.1276 184.779 27.8035 182.002 27.8035 179.954ZM23.4127 180.296C23.3553 180.927 23.0966 182.019 18.6131 182.619C19.5586 179.262 21.3618 179.013 22.195 179.013C22.9759 179.013 23.4736 179.618 23.4127 180.296ZM8.40622 180.842C8.40622 180.842 6.50055 186.817 6.35288 187.319C6.30165 186.817 4.90718 176.084 4.90718 176.084C1.66185 176.084 -0.0742502 178.39 -0.98925 180.839C-0.98925 180.839 -3.30735 186.832 -3.49523 187.334C-3.50618 186.864 -3.85147 180.902 -3.85147 180.902C-4.0479 177.905 -6.7832 176.091 -9 176.091L-6.33422 192.353C-2.92912 192.342 -1.1064 190.04 -0.144975 187.595C-0.144975 187.595 1.89367 182.307 1.9779 182.067C1.9986 182.296 3.44438 192.353 3.44438 192.353C6.85193 192.353 8.69048 190.197 9.67995 187.84L14.4613 176.091C11.094 176.091 9.32122 178.391 8.40622 180.842ZM40.3187 175.713C38.2239 175.713 36.6098 176.851 35.2507 178.533L35.2531 178.521L36.461 168.75C33.6719 168.75 31.3929 171.178 30.9598 174.779L28.8382 192.226C30.4474 192.226 32.1518 191.759 33.0716 190.576C33.8952 191.634 35.1189 192.477 36.9306 192.477C41.6338 192.477 44.867 187.01 44.867 181.878C44.867 177.194 42.5879 175.713 40.3187 175.713ZM39.8868 184.094C39.3988 186.964 37.8042 188.899 36.2596 188.899C34.7029 188.899 34.0453 188.211 34.0453 188.211C34.3356 185.702 34.5284 184.164 35.0957 182.839C35.6618 181.514 37.0002 179.4 38.4007 179.4C39.7623 179.4 40.3748 181.226 39.8868 184.094ZM56.6574 176.092H53.3645L53.3803 175.92C53.6048 173.77 54.1197 172.642 55.7863 172.469C56.9245 172.352 57.4394 171.76 57.559 171.121C57.653 170.619 57.9713 168.846 57.9713 168.846C51.3661 168.809 49.2957 171.66 48.7674 175.993L48.7552 176.091L48.6905 176.093C47.6181 176.093 46.4408 177.307 46.2346 178.849L46.1627 179.417H48.3587L46.5152 194.678L45.9565 197.421L46.1833 197.428C49.2664 197.311 51.2502 194.879 51.6882 191.339L53.1278 179.417H54.16C55.1702 179.417 56.3572 178.404 56.5768 176.712L56.6574 176.092ZM73.7453 175.809C69.951 175.809 66.375 178.602 65.2755 182.995C64.1775 187.387 65.847 192.574 71.4233 192.574C77.0018 192.574 80.2065 187.168 80.2065 182.679C80.2065 178.188 77.1713 175.809 73.7453 175.809ZM75.2835 183.964C75.087 185.956 74.2088 188.966 71.808 188.966C69.3968 188.966 69.7395 185.434 69.9727 183.758C70.2232 181.961 71.2328 179.417 73.3815 179.417C75.3225 179.417 75.5055 181.714 75.2835 183.964ZM98.9438 180.842C98.9438 180.842 97.038 186.817 96.8917 187.319C96.8392 186.817 95.445 176.084 95.445 176.084C92.1997 176.084 90.4642 178.39 89.5485 180.839C89.5485 180.839 87.2317 186.832 87.0435 187.334C87.0322 186.864 86.6872 180.902 86.6872 180.902C86.4907 177.905 83.754 176.091 81.5385 176.091L84.2032 192.353C87.6082 192.342 89.4322 190.04 90.3937 187.595C90.3937 187.595 92.4322 182.307 92.5162 182.067C92.5372 182.296 93.9818 192.353 93.9818 192.353C97.3898 192.353 99.228 190.197 100.217 187.84L105 176.091C101.632 176.091 99.8588 178.391 98.9438 180.842ZM59.7563 168.846L56.9917 191.144L56.9843 191.14L56.4231 193.897L56.6488 193.905C59.6257 193.868 61.7376 191.256 62.1353 187.962L63.732 175.164C64.2165 171.266 61.8926 168.846 59.7563 168.846Z" fill="white"/>
<path d="M251.615 192.048H255.774V184.918H257.582L261.999 192.048H266.441L261.559 184.195C263.729 183.55 265.356 182.077 265.356 179.288V179.184C265.356 175.361 262.593 173.579 258.227 173.579H251.615V192.048ZM255.774 182.077V176.782H258.124C260.139 176.782 261.275 177.428 261.275 179.313V179.417C261.275 181.199 260.216 182.077 258.124 182.077H255.774Z" fill="white"/>
<path d="M273.579 192.332C277.273 192.332 279.598 190.704 280.037 187.786H276.498C276.266 188.922 275.413 189.671 273.683 189.671C271.642 189.671 270.428 188.38 270.325 186.132H280.063V185.099C280.063 180.269 276.963 178.229 273.476 178.229C269.55 178.229 266.528 180.992 266.528 185.254V185.461C266.528 189.774 269.498 192.332 273.579 192.332ZM270.376 183.834C270.66 181.922 271.797 180.812 273.476 180.812C275.258 180.812 276.291 181.793 276.421 183.834H270.376Z" fill="white"/>
<path d="M281.843 192.048H285.562V172.417H281.843V192.048Z" fill="white"/>
<path d="M292.698 192.332C294.92 192.332 296.288 191.298 296.986 189.929V192.047H300.705V178.538H296.986V186.468C296.986 188.457 295.746 189.439 294.171 189.439C292.569 189.439 291.82 188.56 291.82 186.727V178.538H288.101V187.243C288.101 190.782 290.064 192.332 292.698 192.332Z" fill="white"/>
<path d="M303.245 192.047H306.99V184.066C306.99 182.232 308.152 181.302 309.599 181.302C310.917 181.302 311.717 182.077 311.717 183.808V192.047H315.437V184.066C315.437 182.232 316.599 181.302 318.045 181.302C319.388 181.302 320.164 182.077 320.164 183.808V192.047H323.883V183.395C323.883 179.804 321.946 178.229 319.44 178.229C317.735 178.229 315.979 178.952 314.894 180.579C314.249 178.978 312.905 178.229 311.123 178.229C309.108 178.229 307.662 179.339 306.99 180.605V178.538H303.245V192.047Z" fill="white"/>
<path d="M332.532 192.332C336.226 192.332 338.551 190.704 338.989 187.786H335.451C335.218 188.922 334.366 189.671 332.635 189.671C330.594 189.671 329.381 188.38 329.277 186.132H339.015V185.099C339.015 180.269 335.915 178.229 332.428 178.229C328.502 178.229 325.48 180.992 325.48 185.254V185.461C325.48 189.774 328.451 192.332 332.532 192.332ZM329.329 183.834C329.613 181.922 330.75 180.812 332.428 180.812C334.211 180.812 335.244 181.793 335.374 183.834H329.329Z" fill="white"/>
<path fill-rule="evenodd" clip-rule="evenodd" d="M237.303 174.684L237.052 174.236C236.728 173.693 236.271 173.243 235.725 172.926L223.689 165.984C223.143 165.668 222.525 165.501 221.895 165.5H221.375C220.745 165.501 220.126 165.668 219.581 165.984L207.545 172.944C207.001 173.258 206.55 173.71 206.235 174.253L205.984 174.702C205.668 175.247 205.501 175.866 205.5 176.496V190.397C205.501 191.027 205.668 191.646 205.984 192.191L206.235 192.639C206.558 193.177 207.008 193.626 207.545 193.949L219.599 200.891C220.141 201.213 220.762 201.381 221.393 201.375H221.895C222.525 201.374 223.143 201.207 223.689 200.891L235.725 193.931C236.273 193.624 236.727 193.17 237.034 192.621L237.303 192.173C237.615 191.626 237.782 191.009 237.787 190.379V176.478C237.786 175.848 237.619 175.229 237.303 174.684ZM221.375 169.087H221.895L232.406 175.15L221.644 181.357L210.881 175.15L221.375 169.087ZM223.437 196.891L233.931 190.828L234.2 190.379V178.254L223.437 184.478V196.891Z" fill="white"/>
<path d="M475.804 179.954C475.804 177.906 473.819 175.735 470.377 175.735C466.511 175.735 462.27 178.565 461.613 184.221C460.951 189.94 464.511 192.466 468.088 192.466C471.664 192.466 473.547 191.073 475.458 189.205C473.808 187.126 471.679 188.094 471.276 188.296C470.831 188.519 470.246 188.828 469.059 188.828C467.673 188.828 466.268 188.201 466.268 185.628C475.128 184.779 475.804 182.002 475.804 179.954ZM471.413 180.296C471.355 180.927 471.097 182.019 466.613 182.619C467.559 179.262 469.362 179.013 470.195 179.013C470.976 179.013 471.474 179.618 471.413 180.296ZM456.406 180.842C456.406 180.842 454.501 186.817 454.353 187.319C454.302 186.817 452.907 176.084 452.907 176.084C449.662 176.084 447.926 178.39 447.011 180.839C447.011 180.839 444.693 186.832 444.505 187.334C444.494 186.864 444.149 180.902 444.149 180.902C443.952 177.905 441.217 176.091 439 176.091L441.666 192.353C445.071 192.342 446.894 190.04 447.855 187.595C447.855 187.595 449.894 182.307 449.978 182.067C449.999 182.296 451.444 192.353 451.444 192.353C454.852 192.353 456.69 190.197 457.68 187.84L462.461 176.091C459.094 176.091 457.321 178.391 456.406 180.842ZM488.319 175.713C486.224 175.713 484.61 176.851 483.251 178.533L483.253 178.521L484.461 168.75C481.672 168.75 479.393 171.178 478.96 174.779L476.838 192.226C478.447 192.226 480.152 191.759 481.072 190.576C481.895 191.634 483.119 192.477 484.931 192.477C489.634 192.477 492.867 187.01 492.867 181.878C492.867 177.194 490.588 175.713 488.319 175.713ZM487.887 184.094C487.399 186.964 485.804 188.899 484.26 188.899C482.703 188.899 482.045 188.211 482.045 188.211C482.336 185.702 482.528 184.164 483.096 182.839C483.662 181.514 485 179.4 486.401 179.4C487.762 179.4 488.375 181.226 487.887 184.094ZM504.657 176.092H501.365L501.38 175.92C501.605 173.77 502.12 172.642 503.786 172.469C504.925 172.352 505.439 171.76 505.559 171.121C505.653 170.619 505.971 168.846 505.971 168.846C499.366 168.809 497.296 171.66 496.767 175.993L496.755 176.091L496.691 176.093C495.618 176.093 494.441 177.307 494.235 178.849L494.163 179.417H496.359L494.515 194.678L493.956 197.421L494.183 197.428C497.266 197.311 499.25 194.879 499.688 191.339L501.128 179.417H502.16C503.17 179.417 504.357 178.404 504.577 176.712L504.657 176.092ZM521.745 175.809C517.951 175.809 514.375 178.602 513.275 182.995C512.177 187.387 513.847 192.574 519.423 192.574C525.002 192.574 528.207 187.168 528.207 182.679C528.207 178.188 525.171 175.809 521.745 175.809ZM523.283 183.964C523.087 185.956 522.209 188.966 519.808 188.966C517.397 188.966 517.739 185.434 517.973 183.758C518.223 181.961 519.233 179.417 521.382 179.417C523.323 179.417 523.505 181.714 523.283 183.964ZM546.944 180.842C546.944 180.842 545.038 186.817 544.892 187.319C544.839 186.817 543.445 176.084 543.445 176.084C540.2 176.084 538.464 178.39 537.548 180.839C537.548 180.839 535.232 186.832 535.043 187.334C535.032 186.864 534.687 180.902 534.687 180.902C534.491 177.905 531.754 176.091 529.539 176.091L532.203 192.353C535.608 192.342 537.432 190.04 538.394 187.595C538.394 187.595 540.432 182.307 540.516 182.067C540.537 182.296 541.982 192.353 541.982 192.353C545.39 192.353 547.228 190.197 548.217 187.84L553 176.091C549.632 176.091 547.859 178.391 546.944 180.842ZM507.756 168.846L504.992 191.144L504.984 191.14L504.423 193.897L504.649 193.905C507.626 193.868 509.738 191.256 510.135 187.962L511.732 175.164C512.216 171.266 509.893 168.846 507.756 168.846Z" fill="white"/>
<path d="M699.615 192.048H703.774V184.918H705.582L709.999 192.048H714.441L709.559 184.195C711.729 183.55 713.356 182.077 713.356 179.288V179.184C713.356 175.361 710.593 173.579 706.227 173.579H699.615V192.048ZM703.774 182.077V176.782H706.124C708.139 176.782 709.275 177.428 709.275 179.313V179.417C709.275 181.199 708.216 182.077 706.124 182.077H703.774Z" fill="white"/>
<path d="M721.579 192.332C725.273 192.332 727.598 190.704 728.037 187.786H724.498C724.266 188.922 723.413 189.671 721.683 189.671C719.642 189.671 718.428 188.38 718.325 186.132H728.063V185.099C728.063 180.269 724.963 178.229 721.476 178.229C717.55 178.229 714.528 180.992 714.528 185.254V185.461C714.528 189.774 717.498 192.332 721.579 192.332ZM718.376 183.834C718.66 181.922 719.797 180.812 721.476 180.812C723.258 180.812 724.291 181.793 724.421 183.834H718.376Z" fill="white"/>
<path d="M729.843 192.048H733.562V172.417H729.843V192.048Z" fill="white"/>
<path d="M740.698 192.332C742.92 192.332 744.288 191.298 744.986 189.929V192.047H748.705V178.538H744.986V186.468C744.986 188.457 743.746 189.439 742.171 189.439C740.569 189.439 739.82 188.56 739.82 186.727V178.538H736.101V187.243C736.101 190.782 738.064 192.332 740.698 192.332Z" fill="white"/>
<path d="M751.245 192.047H754.99V184.066C754.99 182.232 756.152 181.302 757.599 181.302C758.917 181.302 759.717 182.077 759.717 183.808V192.047H763.437V184.066C763.437 182.232 764.599 181.302 766.045 181.302C767.388 181.302 768.164 182.077 768.164 183.808V192.047H771.883V183.395C771.883 179.804 769.946 178.229 767.44 178.229C765.735 178.229 763.979 178.952 762.894 180.579C762.249 178.978 760.905 178.229 759.123 178.229C757.108 178.229 755.662 179.339 754.99 180.605V178.538H751.245V192.047Z" fill="white"/>
<path d="M780.532 192.332C784.226 192.332 786.551 190.704 786.989 187.786H783.451C783.218 188.922 782.366 189.671 780.635 189.671C778.594 189.671 777.381 188.38 777.278 186.132H787.015V185.099C787.015 180.269 783.915 178.229 780.428 178.229C776.502 178.229 773.48 180.992 773.48 185.254V185.461C773.48 189.774 776.451 192.332 780.532 192.332ZM777.329 183.834C777.613 181.922 778.75 180.812 780.428 180.812C782.211 180.812 783.244 181.793 783.374 183.834H777.329Z" fill="white"/>
<path fill-rule="evenodd" clip-rule="evenodd" d="M685.303 174.684L685.052 174.236C684.728 173.693 684.271 173.243 683.725 172.926L671.689 165.984C671.143 165.668 670.525 165.501 669.895 165.5H669.375C668.745 165.501 668.126 165.668 667.581 165.984L655.545 172.944C655.001 173.258 654.55 173.71 654.235 174.253L653.984 174.702C653.668 175.247 653.501 175.866 653.5 176.496V190.397C653.501 191.027 653.668 191.646 653.984 192.191L654.235 192.639C654.558 193.177 655.008 193.626 655.545 193.949L667.599 200.891C668.141 201.213 668.762 201.381 669.393 201.375H669.895C670.525 201.374 671.143 201.207 671.689 200.891L683.725 193.931C684.273 193.624 684.727 193.17 685.034 192.621L685.303 192.173C685.615 191.626 685.782 191.009 685.787 190.379V176.478C685.786 175.848 685.619 175.229 685.303 174.684ZM669.375 169.087H669.895L680.406 175.15L669.644 181.357L658.881 175.15L669.375 169.087ZM671.437 196.891L681.931 190.828L682.2 190.379V178.254L671.437 184.478V196.891Z" fill="white"/>
<path d="M923.804 179.954C923.804 177.906 921.819 175.735 918.377 175.735C914.511 175.735 910.27 178.565 909.613 184.221C908.951 189.94 912.511 192.466 916.088 192.466C919.664 192.466 921.547 191.073 923.458 189.205C921.808 187.126 919.679 188.094 919.276 188.296C918.831 188.519 918.246 188.828 917.059 188.828C915.673 188.828 914.268 188.201 914.268 185.628C923.128 184.779 923.804 182.002 923.804 179.954ZM919.413 180.296C919.355 180.927 919.097 182.019 914.613 182.619C915.559 179.262 917.362 179.013 918.195 179.013C918.976 179.013 919.474 179.618 919.413 180.296ZM904.406 180.842C904.406 180.842 902.501 186.817 902.353 187.319C902.302 186.817 900.907 176.084 900.907 176.084C897.662 176.084 895.926 178.39 895.011 180.839C895.011 180.839 892.693 186.832 892.505 187.334C892.494 186.864 892.149 180.902 892.149 180.902C891.952 177.905 889.217 176.091 887 176.091L889.666 192.353C893.071 192.342 894.894 190.04 895.855 187.595C895.855 187.595 897.894 182.307 897.978 182.067C897.999 182.296 899.444 192.353 899.444 192.353C902.852 192.353 904.69 190.197 905.68 187.84L910.461 176.091C907.094 176.091 905.321 178.391 904.406 180.842ZM936.319 175.713C934.224 175.713 932.61 176.851 931.251 178.533L931.253 178.521L932.461 168.75C929.672 168.75 927.393 171.178 926.96 174.779L924.838 192.226C926.447 192.226 928.152 191.759 929.072 190.576C929.895 191.634 931.119 192.477 932.931 192.477C937.634 192.477 940.867 187.01 940.867 181.878C940.867 177.194 938.588 175.713 936.319 175.713ZM935.887 184.094C935.399 186.964 933.804 188.899 932.26 188.899C930.703 188.899 930.045 188.211 930.045 188.211C930.336 185.702 930.528 184.164 931.096 182.839C931.662 181.514 933 179.4 934.401 179.4C935.762 179.4 936.375 181.226 935.887 184.094ZM952.657 176.092H949.365L949.38 175.92C949.605 173.77 950.12 172.642 951.786 172.469C952.925 172.352 953.439 171.76 953.559 171.121C953.653 170.619 953.971 168.846 953.971 168.846C947.366 168.809 945.296 171.66 944.767 175.993L944.755 176.091L944.691 176.093C943.618 176.093 942.441 177.307 942.235 178.849L942.163 179.417H944.359L942.515 194.678L941.956 197.421L942.183 197.428C945.266 197.311 947.25 194.879 947.688 191.339L949.128 179.417H950.16C951.17 179.417 952.357 178.404 952.577 176.712L952.657 176.092ZM969.745 175.809C965.951 175.809 962.375 178.602 961.275 182.995C960.177 187.387 961.847 192.574 967.423 192.574C973.002 192.574 976.207 187.168 976.207 182.679C976.207 178.188 973.171 175.809 969.745 175.809ZM971.283 183.964C971.087 185.956 970.209 188.966 967.808 188.966C965.397 188.966 965.739 185.434 965.973 183.758C966.223 181.961 967.233 179.417 969.382 179.417C971.323 179.417 971.505 181.714 971.283 183.964ZM994.944 180.842C994.944 180.842 993.038 186.817 992.892 187.319C992.839 186.817 991.445 176.084 991.445 176.084C988.2 176.084 986.464 178.39 985.548 180.839C985.548 180.839 983.232 186.832 983.043 187.334C983.032 186.864 982.687 180.902 982.687 180.902C982.491 177.905 979.754 176.091 977.539 176.091L980.203 192.353C983.608 192.342 985.432 190.04 986.394 187.595C986.394 187.595 988.432 182.307 988.516 182.067C988.537 182.296 989.982 192.353 989.982 192.353C993.39 192.353 995.228 190.197 996.217 187.84L1001 176.091C997.632 176.091 995.859 178.391 994.944 180.842ZM955.756 168.846L952.992 191.144L952.984 191.14L952.423 193.897L952.649 193.905C955.626 193.868 957.738 191.256 958.135 187.962L959.732 175.164C960.216 171.266 957.893 168.846 955.756 168.846Z" fill="white"/>
<path d="M1147.61 192.048H1151.77V184.918H1153.58L1158 192.048H1162.44L1157.56 184.195C1159.73 183.55 1161.36 182.077 1161.36 179.288V179.184C1161.36 175.361 1158.59 173.579 1154.23 173.579H1147.61V192.048ZM1151.77 182.077V176.782H1154.12C1156.14 176.782 1157.28 177.428 1157.28 179.313V179.417C1157.28 181.199 1156.22 182.077 1154.12 182.077H1151.77Z" fill="white"/>
<path d="M1169.58 192.332C1173.27 192.332 1175.6 190.704 1176.04 187.786H1172.5C1172.27 188.922 1171.41 189.671 1169.68 189.671C1167.64 189.671 1166.43 188.38 1166.32 186.132H1176.06V185.099C1176.06 180.269 1172.96 178.229 1169.48 178.229C1165.55 178.229 1162.53 180.992 1162.53 185.254V185.461C1162.53 189.774 1165.5 192.332 1169.58 192.332ZM1166.38 183.834C1166.66 181.922 1167.8 180.812 1169.48 180.812C1171.26 180.812 1172.29 181.793 1172.42 183.834H1166.38Z" fill="white"/>
<path d="M1177.84 192.048H1181.56V172.417H1177.84V192.048Z" fill="white"/>
<path d="M1188.7 192.332C1190.92 192.332 1192.29 191.298 1192.99 189.929V192.047H1196.71V178.538H1192.99V186.468C1192.99 188.457 1191.75 189.439 1190.17 189.439C1188.57 189.439 1187.82 188.56 1187.82 186.727V178.538H1184.1V187.243C1184.1 190.782 1186.06 192.332 1188.7 192.332Z" fill="white"/>
<path d="M1199.24 192.047H1202.99V184.066C1202.99 182.232 1204.15 181.302 1205.6 181.302C1206.92 181.302 1207.72 182.077 1207.72 183.808V192.047H1211.44V184.066C1211.44 182.232 1212.6 181.302 1214.05 181.302C1215.39 181.302 1216.16 182.077 1216.16 183.808V192.047H1219.88V183.395C1219.88 179.804 1217.95 178.229 1215.44 178.229C1213.74 178.229 1211.98 178.952 1210.89 180.579C1210.25 178.978 1208.91 178.229 1207.12 178.229C1205.11 178.229 1203.66 179.339 1202.99 180.605V178.538H1199.24V192.047Z" fill="white"/>
<path d="M1228.53 192.332C1232.23 192.332 1234.55 190.704 1234.99 187.786H1231.45C1231.22 188.922 1230.37 189.671 1228.63 189.671C1226.59 189.671 1225.38 188.38 1225.28 186.132H1235.02V185.099C1235.02 180.269 1231.92 178.229 1228.43 178.229C1224.5 178.229 1221.48 180.992 1221.48 185.254V185.461C1221.48 189.774 1224.45 192.332 1228.53 192.332ZM1225.33 183.834C1225.61 181.922 1226.75 180.812 1228.43 180.812C1230.21 180.812 1231.24 181.793 1231.37 183.834H1225.33Z" fill="white"/>
<path fill-rule="evenodd" clip-rule="evenodd" d="M1133.3 174.684L1133.05 174.236C1132.73 173.693 1132.27 173.243 1131.72 172.926L1119.69 165.984C1119.14 165.668 1118.52 165.501 1117.89 165.5H1117.37C1116.74 165.501 1116.13 165.668 1115.58 165.984L1103.54 172.944C1103 173.258 1102.55 173.71 1102.24 174.253L1101.98 174.702C1101.67 175.247 1101.5 175.866 1101.5 176.496V190.397C1101.5 191.027 1101.67 191.646 1101.98 192.191L1102.24 192.639C1102.56 193.177 1103.01 193.626 1103.54 193.949L1115.6 200.891C1116.14 201.213 1116.76 201.381 1117.39 201.375H1117.89C1118.52 201.374 1119.14 201.207 1119.69 200.891L1131.72 193.931C1132.27 193.624 1132.73 193.17 1133.03 192.621L1133.3 192.173C1133.62 191.626 1133.78 191.009 1133.79 190.379V176.478C1133.79 175.848 1133.62 175.229 1133.3 174.684ZM1117.37 169.087H1117.89L1128.41 175.15L1117.64 181.357L1106.88 175.15L1117.37 169.087ZM1119.44 196.891L1129.93 190.828L1130.2 190.379V178.254L1119.44 184.478V196.891Z" fill="white"/>
<path d="M1371.8 179.954C1371.8 177.906 1369.82 175.735 1366.38 175.735C1362.51 175.735 1358.27 178.565 1357.61 184.221C1356.95 189.94 1360.51 192.466 1364.09 192.466C1367.66 192.466 1369.55 191.073 1371.46 189.205C1369.81 187.126 1367.68 188.094 1367.28 188.296C1366.83 188.519 1366.25 188.828 1365.06 188.828C1363.67 188.828 1362.27 188.201 1362.27 185.628C1371.13 184.779 1371.8 182.002 1371.8 179.954ZM1367.41 180.296C1367.36 180.927 1367.1 182.019 1362.61 182.619C1363.56 179.262 1365.36 179.013 1366.2 179.013C1366.98 179.013 1367.47 179.618 1367.41 180.296ZM1352.41 180.842C1352.41 180.842 1350.5 186.817 1350.35 187.319C1350.3 186.817 1348.91 176.084 1348.91 176.084C1345.66 176.084 1343.93 178.39 1343.01 180.839C1343.01 180.839 1340.69 186.832 1340.5 187.334C1340.49 186.864 1340.15 180.902 1340.15 180.902C1339.95 177.905 1337.22 176.091 1335 176.091L1337.67 192.353C1341.07 192.342 1342.89 190.04 1343.86 187.595C1343.86 187.595 1345.89 182.307 1345.98 182.067C1346 182.296 1347.44 192.353 1347.44 192.353C1350.85 192.353 1352.69 190.197 1353.68 187.84L1358.46 176.091C1355.09 176.091 1353.32 178.391 1352.41 180.842ZM1384.32 175.713C1382.22 175.713 1380.61 176.851 1379.25 178.533L1379.25 178.521L1380.46 168.75C1377.67 168.75 1375.39 171.178 1374.96 174.779L1372.84 192.226C1374.45 192.226 1376.15 191.759 1377.07 190.576C1377.9 191.634 1379.12 192.477 1380.93 192.477C1385.63 192.477 1388.87 187.01 1388.87 181.878C1388.87 177.194 1386.59 175.713 1384.32 175.713ZM1383.89 184.094C1383.4 186.964 1381.8 188.899 1380.26 188.899C1378.7 188.899 1378.05 188.211 1378.05 188.211C1378.34 185.702 1378.53 184.164 1379.1 182.839C1379.66 181.514 1381 179.4 1382.4 179.4C1383.76 179.4 1384.37 181.226 1383.89 184.094ZM1400.66 176.092H1397.36L1397.38 175.92C1397.6 173.77 1398.12 172.642 1399.79 172.469C1400.92 172.352 1401.44 171.76 1401.56 171.121C1401.65 170.619 1401.97 168.846 1401.97 168.846C1395.37 168.809 1393.3 171.66 1392.77 175.993L1392.76 176.091L1392.69 176.093C1391.62 176.093 1390.44 177.307 1390.23 178.849L1390.16 179.417H1392.36L1390.52 194.678L1389.96 197.421L1390.18 197.428C1393.27 197.311 1395.25 194.879 1395.69 191.339L1397.13 179.417H1398.16C1399.17 179.417 1400.36 178.404 1400.58 176.712L1400.66 176.092ZM1417.75 175.809C1413.95 175.809 1410.37 178.602 1409.28 182.995C1408.18 187.387 1409.85 192.574 1415.42 192.574C1421 192.574 1424.21 187.168 1424.21 182.679C1424.21 178.188 1421.17 175.809 1417.75 175.809ZM1419.28 183.964C1419.09 185.956 1418.21 188.966 1415.81 188.966C1413.4 188.966 1413.74 185.434 1413.97 183.758C1414.22 181.961 1415.23 179.417 1417.38 179.417C1419.32 179.417 1419.51 181.714 1419.28 183.964ZM1442.94 180.842C1442.94 180.842 1441.04 186.817 1440.89 187.319C1440.84 186.817 1439.44 176.084 1439.44 176.084C1436.2 176.084 1434.46 178.39 1433.55 180.839C1433.55 180.839 1431.23 186.832 1431.04 187.334C1431.03 186.864 1430.69 180.902 1430.69 180.902C1430.49 177.905 1427.75 176.091 1425.54 176.091L1428.2 192.353C1431.61 192.342 1433.43 190.04 1434.39 187.595C1434.39 187.595 1436.43 182.307 1436.52 182.067C1436.54 182.296 1437.98 192.353 1437.98 192.353C1441.39 192.353 1443.23 190.197 1444.22 187.84L1449 176.091C1445.63 176.091 1443.86 178.391 1442.94 180.842ZM1403.76 168.846L1400.99 191.144L1400.98 191.14L1400.42 193.897L1400.65 193.905C1403.63 193.868 1405.74 191.256 1406.14 187.962L1407.73 175.164C1408.22 171.266 1405.89 168.846 1403.76 168.846Z" fill="white"/>
</g>
<defs>
<clipPath id="clip0_1_34">
<rect width="1440" height="291" fill="white"/>
</clipPath>
</defs>
</svg>
