<svg width="304" height="358" viewBox="0 0 304 358" fill="none" xmlns="http://www.w3.org/2000/svg">
<path d="M152 3L155.494 124.96L219.5 21.0866L161.546 128.454L268.913 70.5L165.04 134.506L287 138L165.04 141.494L268.913 205.5L161.546 147.546L219.5 254.913L155.494 151.04L152 273L148.506 151.04L84.5 254.913L142.454 147.546L35.0866 205.5L138.96 141.494L17 138L138.96 134.506L35.0866 70.5L142.454 128.454L84.5 21.0866L148.506 124.96L152 3Z" fill="#24FF00"/>
<path d="M33.5304 209.754C29.9108 202.447 25.8914 201.393 19.9103 204.356C13.9031 207.332 12.3055 211.167 15.9251 218.475L22.6234 231.997L40.2287 223.277L33.5304 209.754ZM34.255 220.762L23.8011 225.941L19.2669 216.787C17.515 213.25 17.8997 211.019 22.0085 208.984C25.8832 207.065 27.969 208.072 29.7208 211.609L34.255 220.762Z" fill="white"/>
<path d="M26.6596 191.376L11.5474 196.139L13.013 200.789L28.1252 196.025L26.6596 191.376ZM9.94205 196.645L6.81442 197.63L8.28 202.28L11.4076 201.295L9.94205 196.645Z" fill="white"/>
<path d="M0.436602 165.455C0.999845 168.891 3.69599 170.449 6.21848 170.947C5.89869 172.764 6.08358 174.969 6.4403 177.146C7.21476 181.871 8.70471 186.655 13.5159 185.867C14.6615 185.679 15.4023 185.175 16.0432 184.6C17.0877 186.487 18.6313 187.293 20.0346 187.063C20.951 186.913 21.7257 186.256 22.1966 185.003C23.067 186.007 24.2491 186.401 25.1083 186.261C28.5162 185.702 28.2948 181.121 27.0134 173.303C26.0841 167.633 24.713 161.241 19.7013 162.062C17.5247 162.419 16.6557 164.473 17.0781 167.05C17.7024 170.859 18.737 172.866 19.7368 178.966C20.07 180.999 19.83 183.303 18.484 183.523C18.0831 183.589 17.5878 183.259 17.2367 182.551C17.8142 180.692 17.626 177.929 17.2036 175.352C16.4245 170.598 14.9918 165.804 10.3524 166.565C8.66273 166.842 7.56318 167.669 6.93028 168.831C5.29981 168.393 3.97829 166.609 3.70137 164.92L0.436602 165.455ZM10.9954 170.488C13.086 170.145 13.9817 172.381 14.5402 175.789C15.0941 179.168 14.9635 181.601 12.8729 181.943C10.8396 182.277 9.88193 180.022 9.33277 176.671C8.76953 173.235 8.96211 170.821 10.9954 170.488ZM22.7178 182.8C22.7592 181.617 22.6818 180.247 22.4142 178.615C21.4285 172.601 20.4901 170.285 20.1663 168.309C19.9691 167.106 20.1997 166.539 20.9729 166.412C22.4048 166.177 23.6075 169.568 24.4617 174.78C25.2315 179.477 25.3657 182.807 23.5328 183.108C23.1605 183.169 22.8319 182.958 22.7178 182.8Z" fill="white"/>
<path d="M21.3172 153.981L5.47508 154.291L5.57051 159.165L21.4126 158.855L21.3172 153.981ZM3.79222 154.324L0.513545 154.388L0.608978 159.263L3.88765 159.198L3.79222 154.324Z" fill="white"/>
<path d="M21.9085 141.614L8.94306 140.651L9.1472 137.901L6.31101 137.691L6.10687 140.44L2.31564 140.159L1.96753 144.847L5.75876 145.129L5.56107 147.791L8.39726 148.002L8.59495 145.339L21.5604 146.302L21.9085 141.614Z" fill="white"/>
<path d="M24.2532 111.25C24.3254 111.593 24.2779 111.939 24.2274 112.166C23.918 113.554 23.0058 112.578 17.5198 111.979C15.7194 111.786 14.4035 112.087 13.2637 112.665C11.5822 113.539 10.0415 115.783 8.81654 121.278C7.6863 126.348 7.95155 129.826 9.11146 132.226L12.0212 130.377C11.33 128.409 11.2718 125.869 12.0359 122.441C13.3303 116.635 14.7848 116.245 16.8464 116.467C16.0901 117.726 15.1756 120.228 14.4621 123.428C13.3887 128.244 12.9446 133.437 17.1367 134.371C20.7056 135.167 23.2255 132.666 24.4567 127.143C25.4923 122.498 25.4976 119.139 24.9448 117.351C25.9522 117.1 26.7711 116.36 27.1942 114.463C27.3773 113.641 27.463 112.59 27.1424 111.894L24.2532 111.25ZM19.5658 116.806C20.9033 117.074 21.7091 117.194 22.3732 117.283C22.58 118.756 22.3101 122.234 21.685 125.038C20.7126 129.4 19.642 129.935 18.2258 129.619C16.6396 129.266 16.2814 128.205 17.4559 122.936C17.98 120.585 19.0299 117.876 19.5658 116.806Z" fill="white"/>
<path d="M30.7578 104.968L11.283 97.6405L9.55591 102.231L29.0307 109.558L30.7578 104.968Z" fill="white"/>
<path d="M51.0184 64.3118C50.9519 64.6561 50.7739 64.9568 50.6395 65.1461C49.8161 66.3055 49.3539 65.0518 44.5291 62.3729C42.9445 61.4967 41.6147 61.2642 40.3397 61.3554C38.451 61.509 36.161 62.9794 32.9012 67.5697C29.8934 71.805 28.7892 75.1141 28.9281 77.7754L32.3271 77.1994C32.4529 75.1175 33.3843 72.7535 35.4175 69.8905C38.8621 65.04 40.3538 65.2451 42.1681 66.2488C40.983 67.1157 39.17 69.0672 37.2713 71.7409C34.4147 75.7633 31.9917 80.3782 35.4935 82.865C38.4748 84.9822 41.7671 83.6541 45.0437 79.0402C47.7994 75.1598 49.1066 72.0661 49.2904 70.2034C50.3164 70.3625 51.3579 69.9987 52.4837 68.4134C52.9709 67.7272 53.4575 66.7914 53.4318 66.0257L51.0184 64.3118ZM44.5435 67.6154C45.6723 68.3814 46.3685 68.8046 46.9463 69.1437C46.5656 70.5819 44.9683 73.6832 43.3048 76.0257C40.7171 79.6695 39.5231 79.7469 38.3401 78.9068C37.015 77.9658 37.0963 76.849 40.2217 72.448C41.6163 70.4842 43.6347 68.3938 44.5435 67.6154Z" fill="white"/>
<path d="M59.2808 61.2475L52.4001 54.4206C52.1852 51.959 54.8806 48.583 57.1494 46.2963L54.2035 43.3734C51.5872 46.0103 49.5088 49.7533 49.7036 52.3176L47.583 50.5406L44.5988 53.5484L55.8469 64.7084L59.2808 61.2475Z" fill="white"/>
<path d="M73.4761 48.6761L65.38 38.5035L67.5371 36.7867L65.7661 34.5614L63.609 36.2783L61.2416 33.3037L57.5631 36.2313L59.9305 39.2059L57.8415 40.8685L59.6125 43.0937L61.7015 41.4311L69.7976 51.6038L73.4761 48.6761Z" fill="white"/>
<path d="M123.914 23.5205L120.566 14.8897C118.76 10.2362 115.189 9.53602 111.78 10.8585C107.262 12.6114 105.726 14.1097 104.214 16.4706C102.335 15.2384 100.157 15.3989 97.7756 16.3226C93.582 17.9495 91.9505 19.3606 90.8657 21.0577L90.1531 19.6221L86.203 21.1545L91.9339 35.927L96.4793 34.1636L92.5642 24.0718C93.3138 22.4737 95.0055 20.9769 97.657 19.9483C100.471 18.8567 101.63 19.8389 102.386 21.7869L105.786 30.5529L110.197 28.8421L106.334 18.8856C107.046 17.2708 108.669 15.6764 111.455 14.5953C113.917 13.6401 115.337 14.4903 116.155 16.6006L119.504 25.2314L123.914 23.5205Z" fill="white"/>
<path d="M148.717 17.6063C148.421 17.794 148.08 17.8707 147.85 17.9027C146.442 18.0986 147.037 16.9024 145.678 11.5538C145.229 9.79967 144.486 8.67238 143.545 7.80703C142.138 6.53774 139.498 5.8795 133.921 6.65504C128.776 7.37061 125.611 8.83637 123.769 10.7626L126.519 12.8413C128.121 11.5051 130.48 10.5617 133.958 10.078C139.85 9.25851 140.724 10.4848 141.238 12.4936C139.794 12.2256 137.131 12.2444 133.883 12.6962C128.996 13.3758 123.976 14.7772 124.567 19.0313C125.071 22.653 128.296 24.1383 133.901 23.3588C138.615 22.7032 141.763 21.5328 143.244 20.3892C143.832 21.245 144.811 21.7534 146.737 21.4856C147.571 21.3697 148.585 21.082 149.125 20.5382L148.717 17.6063ZM141.872 15.1595C142.089 16.5065 142.258 17.3033 142.408 17.9564C141.1 18.6657 137.748 19.6301 134.902 20.0258C130.475 20.6415 129.6 19.8256 129.4 18.3884C129.176 16.7788 130.045 16.072 135.391 15.3284C137.777 14.9966 140.683 15.032 141.872 15.1595Z" fill="white"/>
<path d="M172.749 22.3149L173.869 1.53747L169.001 1.27495L168.665 7.50528C167.496 6.54132 165.014 5.68092 161.653 5.49966C155.307 5.15745 151.601 7.05012 151.268 13.2225C150.935 19.3949 154.532 21.6813 160.762 22.0173C164.645 22.2267 167.368 21.3272 168.432 20.4546L168.46 22.0836L172.749 22.3149ZM168.153 17.0102C167.276 18.1835 164.912 18.8989 162.217 18.7535C157.58 18.5035 155.63 16.9452 155.818 13.4678C156.004 10.0194 157.994 8.67363 162.747 8.92989C165.413 9.07365 167.373 9.90593 168.463 11.2435L168.153 17.0102Z" fill="white"/>
<path d="M199.475 21.6547L199.643 20.9788C201.092 15.1489 199.518 12.0964 191.041 9.98956C183.972 8.23271 179.715 9.23808 178.203 15.3214C176.698 21.3766 179.982 24.286 187.051 26.0428C192.571 27.4147 196.188 26.9381 198.121 24.5776L194.148 22.3941C192.875 23.4235 190.715 23.6939 187.786 22.966C183.843 21.9861 182.116 20.3907 182.521 17.4411L199.475 21.6547ZM183.284 14.8498C184.337 12.5398 186.617 12.1495 190.25 13.0524C194.136 14.0183 195.736 15.5223 195.535 17.8946L183.284 14.8498Z" fill="white"/>
<path d="M216.386 34.1336C217.093 35.5891 219.506 39.147 225.418 42.7748C230.439 45.8562 234.702 46.1228 237.98 40.7802C241.289 35.3882 239.091 31.7577 234.07 28.6764C230.854 26.7031 228.599 26.2724 226.932 26.2706L230.226 20.9033L226.07 18.3533L216.386 34.1336ZM224.989 29.4366C226.72 29.001 228.723 29.3446 231.221 30.8777C234.857 33.109 235.994 35.3053 234.097 38.3971C232.321 41.291 229.736 41.509 226.743 39.6724C224.467 38.2759 222.747 36.6411 221.589 34.9771L224.989 29.4366Z" fill="white"/>
<path d="M241.82 54.1536C240.549 54.5755 239.232 54.1779 238.127 53.1926C237.131 52.3039 236.663 51.3029 236.57 50.4038L233.349 51.2247C233.323 52.2128 233.877 53.9899 236.194 56.0571C239.074 58.6265 241.809 58.6555 244.802 57.4365L261.154 50.7901L257.516 47.5445L246.262 52.3998L249.698 40.5704L245.736 37.035L241.82 54.1536Z" fill="white"/>
<path d="M273.444 95.3427L281.35 90.5257C286.009 87.6868 285.159 83.4472 282.848 79.6555C281.006 76.6321 278.867 74.5712 277.118 73.5977L282.546 70.2907L280.009 66.1273L262.24 76.9542L264.777 81.1176L273.971 75.5154C275.847 76.1397 277.799 77.8385 279.551 80.7132C281.333 83.6375 280.557 85.2654 278.476 86.5338L270.892 91.1545L273.444 95.3427Z" fill="white"/>
<path d="M286.239 111.547C283.848 112.446 282.74 111.065 281.34 107.344C279.95 103.65 280.002 102.141 282.393 101.242L291.41 97.8493L289.673 93.2319L280.601 96.6452C275.304 98.638 275.549 101.926 277.849 108.037C280.455 114.963 282.381 118.269 287.976 116.164L297.021 112.761L295.283 108.144L286.239 111.547Z" fill="white"/>
<path d="M287.949 155.618L297.125 154.394C302.073 153.734 303.593 150.427 303.11 146.803C302.469 141.999 301.373 140.154 299.434 138.129C301.074 136.593 301.43 134.438 301.092 131.906C300.497 127.448 299.51 125.53 298.115 124.077L299.678 123.722L299.118 119.522L283.412 121.618L284.057 126.45L294.786 125.018C296.163 126.123 297.22 128.119 297.596 130.938C297.996 133.93 296.768 134.825 294.697 135.102L285.377 136.346L286.003 141.034L296.589 139.622C297.991 140.694 299.159 142.646 299.554 145.608C299.904 148.226 298.743 149.406 296.5 149.705L287.324 150.93L287.949 155.618Z" fill="white"/>
<path d="M287.865 181.118C287.753 180.786 287.758 180.437 287.781 180.206C287.922 178.791 288.945 179.651 294.463 179.588C296.273 179.564 297.544 179.107 298.606 178.396C300.171 177.327 301.431 174.915 301.989 169.313C302.504 164.144 301.823 160.722 300.384 158.479L297.717 160.664C298.639 162.534 299.001 165.049 298.654 168.543C298.064 174.463 296.667 175.024 294.594 175.051C295.194 173.711 295.802 171.118 296.127 167.854C296.615 162.945 296.434 157.736 292.16 157.311C288.521 156.948 286.319 159.733 285.759 165.364C285.287 170.1 285.684 173.435 286.448 175.144C285.478 175.514 284.753 176.346 284.561 178.281C284.477 179.119 284.518 180.173 284.92 180.825L287.865 181.118ZM291.853 175.041C290.493 174.935 289.679 174.912 289.009 174.904C288.627 173.466 288.478 169.98 288.763 167.121C289.205 162.674 290.204 162.015 291.648 162.159C293.265 162.32 293.748 163.331 293.213 168.702C292.975 171.099 292.257 173.914 291.853 175.041Z" fill="white"/>
<path d="M277.546 203.674L286.413 206.333C291.639 207.9 294.224 204.433 295.499 200.18C296.599 196.511 296.648 193.314 296.064 191.321L297.691 191.657L298.907 187.599L283.73 183.048L282.329 187.718L292.643 190.81C293.432 192.622 293.474 195.21 292.508 198.435C291.599 201.465 289.934 202.268 287.822 201.635L278.954 198.977L277.546 203.674Z" fill="white"/>
<path d="M277.03 231.26C279.544 231.518 282.469 229.537 285.409 223.87C289.018 216.915 288.67 213.302 285.888 211.858C282.307 210 279.328 213.914 277.577 217.289C276.936 218.525 276.399 219.685 275.864 220.716C274.795 222.776 273.696 224.201 272.537 223.599C271.327 222.971 271.509 221.169 273.407 217.512C275.345 213.777 277.102 212.661 278.53 212.617L279.622 208.182C276.444 208.069 273.368 210.593 270.709 215.719C267.033 222.803 267.705 226.421 270.719 227.985C273.784 229.576 276.033 227.636 278.573 222.742C279.134 221.66 279.763 220.385 280.378 219.2C281.287 217.448 282.473 215.415 283.838 216.124C284.946 216.698 284.417 219.04 282.64 222.466C281.076 225.48 279.116 227.176 277.809 226.923L277.03 231.26Z" fill="white"/>
<path fill-rule="evenodd" clip-rule="evenodd" d="M49.7702 246.369C49.7676 245.568 50.4152 244.916 51.2165 244.914L64.2756 244.871C65.077 244.869 65.7287 245.516 65.7313 246.318C65.7339 247.119 65.0864 247.771 64.285 247.773L52.6769 247.811L52.6834 249.807C51.848 249.014 51.0197 248.21 50.1985 247.394L52.2439 245.335C108.83 301.557 200.279 301.261 256.501 244.675L258.559 246.721C202.024 303.623 110.569 304.725 52.6834 249.807L52.7144 259.419C52.717 260.22 52.0695 260.872 51.2681 260.875C50.4667 260.877 49.815 260.23 49.8124 259.428L49.7702 246.369Z" fill="white"/>
</svg>
