<svg width="2012" height="2314" viewBox="0 0 2012 2314" fill="none" xmlns="http://www.w3.org/2000/svg">
<g filter="url(#filter0_f_4_272)">
<ellipse cx="831" cy="1559.5" rx="431" ry="354.5" fill="url(#paint0_linear_4_272)"/>
</g>
<path fill-rule="evenodd" clip-rule="evenodd" d="M1006.06 608.775C952.171 661.722 910.215 749.092 868.85 851.11C852.762 890.79 807.552 909.914 767.872 893.825C728.192 877.736 709.068 832.527 725.157 792.847C765.693 692.872 817.682 576.483 897.399 498.167C938.77 457.523 989.549 425.041 1051.66 411.183C1113.84 397.31 1180.81 403.569 1252.09 429.64C1330.33 458.26 1386.96 510.335 1419.44 576.427C1451.32 641.314 1457.69 714.911 1445.51 785.577C1421.29 926.03 1322.07 1067.44 1167.35 1142.26C1027.24 1210.01 900.307 1318.97 848.305 1423.18C823.11 1473.67 818.454 1516.61 829.529 1552.39C840.525 1587.9 871.479 1630.73 946.994 1672.11C984.886 1692.87 1013.53 1699.32 1034.9 1699.49C1055.64 1699.66 1074.31 1693.99 1093.04 1682.48C1134.35 1657.09 1172.6 1605.86 1214.35 1535.2C1224.72 1517.66 1235.56 1498.36 1246.77 1478.41C1275.75 1426.8 1307.22 1370.79 1339.25 1329.5C1362.53 1299.49 1392.08 1268.7 1429.93 1249.63C1471.03 1228.93 1517.55 1224.36 1565.62 1241.03C1606.07 1255.06 1627.49 1299.23 1613.46 1339.68C1599.43 1380.13 1555.26 1401.55 1514.81 1387.52C1507.55 1385.01 1504.47 1385.7 1499.68 1388.12C1491.63 1392.17 1478.98 1402.34 1461.77 1424.54C1437.09 1456.35 1414.99 1495.75 1388.96 1542.15C1376.41 1564.52 1362.95 1588.52 1347.85 1614.08C1306.01 1684.87 1251.33 1767.19 1174.22 1814.58C1133.74 1839.46 1086.83 1854.98 1033.62 1854.54C981.026 1854.11 927.33 1838.14 872.481 1808.09C773.38 1753.78 707.751 1683.33 681.409 1598.24C655.146 1513.41 672.398 1428.43 709.565 1353.95C782.289 1208.21 941.908 1079.04 1099.85 1002.67C1210.11 949.35 1277.1 849.753 1292.7 759.23C1300.43 714.409 1295.12 675.027 1280.27 644.808C1266.02 615.794 1240.86 590.637 1198.83 575.261C1149.82 557.337 1113.33 556.29 1085.42 562.518C1057.44 568.761 1031.5 583.787 1006.06 608.775Z" fill="#161616"/>
<mask id="mask0_4_272" style="mask-type:alpha" maskUnits="userSpaceOnUse" x="668" y="404" width="950" height="1451">
<path fill-rule="evenodd" clip-rule="evenodd" d="M1006.06 608.775C952.171 661.722 910.215 749.092 868.85 851.11C852.762 890.79 807.552 909.914 767.872 893.825C728.192 877.736 709.068 832.527 725.157 792.847C765.693 692.872 817.682 576.483 897.399 498.167C938.77 457.523 989.549 425.041 1051.66 411.183C1113.84 397.31 1180.81 403.569 1252.09 429.64C1330.33 458.26 1386.96 510.335 1419.44 576.427C1451.32 641.314 1457.69 714.911 1445.51 785.577C1421.29 926.03 1322.07 1067.44 1167.35 1142.26C1027.24 1210.01 900.307 1318.97 848.305 1423.18C823.11 1473.67 818.454 1516.61 829.529 1552.39C840.525 1587.9 871.479 1630.73 946.994 1672.11C984.886 1692.87 1013.53 1699.32 1034.9 1699.49C1055.64 1699.66 1074.31 1693.99 1093.04 1682.48C1134.35 1657.09 1172.6 1605.86 1214.35 1535.2C1224.72 1517.66 1235.56 1498.36 1246.77 1478.41C1275.75 1426.8 1307.22 1370.79 1339.25 1329.5C1362.53 1299.49 1392.08 1268.7 1429.93 1249.63C1471.03 1228.93 1517.55 1224.36 1565.62 1241.03C1606.07 1255.06 1627.49 1299.23 1613.46 1339.68C1599.43 1380.13 1555.26 1401.55 1514.81 1387.52C1507.55 1385.01 1504.47 1385.7 1499.68 1388.12C1491.63 1392.17 1478.98 1402.34 1461.77 1424.54C1437.09 1456.35 1414.99 1495.75 1388.96 1542.15C1376.41 1564.52 1362.95 1588.52 1347.85 1614.08C1306.01 1684.87 1251.33 1767.19 1174.22 1814.58C1133.74 1839.46 1086.83 1854.98 1033.62 1854.54C981.026 1854.11 927.33 1838.14 872.481 1808.09C773.38 1753.78 707.751 1683.33 681.409 1598.24C655.146 1513.41 672.398 1428.43 709.565 1353.95C782.289 1208.21 941.908 1079.04 1099.85 1002.67C1210.11 949.35 1277.1 849.753 1292.7 759.23C1300.43 714.409 1295.12 675.027 1280.27 644.808C1266.02 615.794 1240.86 590.637 1198.83 575.261C1149.82 557.337 1113.33 556.29 1085.42 562.518C1057.44 568.761 1031.5 583.787 1006.06 608.775Z" fill="black"/>
</mask>
<g mask="url(#mask0_4_272)">
<g filter="url(#filter1_f_4_272)">
<path d="M797.003 779.337C878.904 577.344 984.893 371.819 1225.46 459.809C1466.02 547.8 1398.57 901.689 1133.6 1029.82C835.544 1173.95 560.503 1506.09 909.737 1697.46C1280.7 1900.74 1318.92 1194.88 1540.21 1271.63" stroke="url(#paint1_linear_4_272)" stroke-width="100" stroke-linecap="round"/>
</g>
</g>
<g opacity="0.5" filter="url(#filter2_f_4_272)">
<ellipse cx="1267" cy="684" rx="345" ry="284" fill="url(#paint2_linear_4_272)"/>
</g>
<defs>
<filter id="filter0_f_4_272" x="0" y="805" width="1662" height="1509" filterUnits="userSpaceOnUse" color-interpolation-filters="sRGB">
<feFlood flood-opacity="0" result="BackgroundImageFix"/>
<feBlend mode="normal" in="SourceGraphic" in2="BackgroundImageFix" result="shape"/>
<feGaussianBlur stdDeviation="200" result="effect1_foregroundBlur_4_272"/>
</filter>
<filter id="filter1_f_4_272" x="606.312" y="298.888" width="1073.91" height="1575.49" filterUnits="userSpaceOnUse" color-interpolation-filters="sRGB">
<feFlood flood-opacity="0" result="BackgroundImageFix"/>
<feBlend mode="normal" in="SourceGraphic" in2="BackgroundImageFix" result="shape"/>
<feGaussianBlur stdDeviation="45" result="effect1_foregroundBlur_4_272"/>
</filter>
<filter id="filter2_f_4_272" x="522" y="0" width="1490" height="1368" filterUnits="userSpaceOnUse" color-interpolation-filters="sRGB">
<feFlood flood-opacity="0" result="BackgroundImageFix"/>
<feBlend mode="normal" in="SourceGraphic" in2="BackgroundImageFix" result="shape"/>
<feGaussianBlur stdDeviation="200" result="effect1_foregroundBlur_4_272"/>
</filter>
<linearGradient id="paint0_linear_4_272" x1="1217.21" y1="1540.96" x2="484.88" y2="1563.55" gradientUnits="userSpaceOnUse">
<stop stop-color="#1E00DA"/>
<stop offset="1" stop-color="#BD00FF"/>
</linearGradient>
<linearGradient id="paint1_linear_4_272" x1="1423.53" y1="661.783" x2="746.326" y2="1634.37" gradientUnits="userSpaceOnUse">
<stop stop-color="#5A00CD"/>
<stop offset="1" stop-color="#FA00FF"/>
</linearGradient>
<linearGradient id="paint2_linear_4_272" x1="1576.14" y1="669.15" x2="989.942" y2="687.215" gradientUnits="userSpaceOnUse">
<stop stop-color="#1E00DA"/>
<stop offset="1" stop-color="#BD00FF"/>
</linearGradient>
</defs>
</svg>
