<svg width="2059" height="1957" viewBox="0 0 2059 1957" fill="none" xmlns="http://www.w3.org/2000/svg">
<g opacity="0.6">
<g filter="url(#filter0_f_1_148)">
<ellipse cx="804.042" cy="703.318" rx="404" ry="302.5" fill="url(#paint0_linear_1_148)"/>
</g>
<path fill-rule="evenodd" clip-rule="evenodd" d="M576.744 938.956C586.772 1013.84 631.503 1099.82 688.308 1194.12C710.402 1230.79 698.58 1278.44 661.903 1300.53C625.227 1322.63 577.583 1310.8 555.489 1274.13C499.822 1181.72 437.894 1070.3 423.06 959.538C415.362 902.056 419.838 841.943 446.012 783.939C472.215 725.868 517.402 676.041 581.022 634.655C650.86 589.224 726.495 575.161 798.855 588.829C869.896 602.248 932.599 641.303 981.827 693.446C1079.67 797.082 1133.28 961.304 1100.32 1129.97C1070.47 1282.71 1081.5 1449.63 1133.67 1553.75C1158.95 1604.2 1190.52 1633.69 1225.78 1646.29C1260.79 1658.8 1313.63 1659.73 1392.04 1624.14C1431.38 1606.28 1453.72 1587.22 1466.68 1570.24C1479.26 1553.74 1485.92 1535.4 1487.94 1513.51C1492.41 1465.23 1474.38 1403.89 1442.89 1328.09C1435.08 1309.28 1426.14 1289.03 1416.9 1268.09C1393.01 1213.94 1367.07 1155.17 1353.25 1104.76C1343.21 1068.14 1336.3 1026.02 1343.75 984.308C1351.85 939.008 1376.1 899.042 1418.27 870.586C1453.77 846.638 1501.95 855.998 1525.9 891.492C1549.85 926.987 1540.49 975.174 1504.99 999.122C1498.63 1003.42 1497.34 1006.3 1496.39 1011.58C1494.81 1020.46 1495.36 1036.67 1502.79 1063.76C1513.43 1102.59 1531.69 1143.91 1553.2 1192.57C1563.57 1216.03 1574.7 1241.2 1586.09 1268.61C1617.63 1344.56 1650.68 1437.69 1642.34 1527.81C1637.96 1575.12 1622.23 1621.96 1589.96 1664.27C1558.06 1706.09 1513.08 1739.48 1456.12 1765.33C1353.22 1812.03 1257.48 1822.27 1173.61 1792.3C1089.98 1762.42 1032.34 1697.64 995.048 1623.22C922.081 1477.61 914.495 1272.41 948.144 1100.23C971.634 980.028 932.138 866.683 869.079 799.889C837.856 766.817 803.161 747.44 770.076 741.191C738.311 735.191 703.093 740.223 665.573 764.63C621.833 793.083 599.107 821.647 587.345 847.713C575.553 873.846 572.011 903.616 576.744 938.956Z" fill="#161616"/>
<mask id="mask0_1_148" style="mask-type:alpha" maskUnits="userSpaceOnUse" x="419" y="583" width="1225" height="1227">
<path fill-rule="evenodd" clip-rule="evenodd" d="M576.744 938.956C586.772 1013.84 631.503 1099.82 688.308 1194.12C710.402 1230.79 698.58 1278.44 661.903 1300.53C625.227 1322.63 577.583 1310.8 555.489 1274.13C499.822 1181.72 437.894 1070.3 423.06 959.538C415.362 902.056 419.838 841.943 446.012 783.939C472.215 725.868 517.402 676.041 581.022 634.655C650.86 589.224 726.495 575.161 798.855 588.829C869.896 602.248 932.599 641.303 981.827 693.446C1079.67 797.082 1133.28 961.304 1100.32 1129.97C1070.47 1282.71 1081.5 1449.63 1133.67 1553.75C1158.95 1604.2 1190.52 1633.69 1225.78 1646.29C1260.79 1658.8 1313.63 1659.73 1392.04 1624.14C1431.38 1606.28 1453.72 1587.22 1466.68 1570.24C1479.26 1553.74 1485.92 1535.4 1487.94 1513.51C1492.41 1465.23 1474.38 1403.89 1442.89 1328.09C1435.08 1309.28 1426.14 1289.03 1416.9 1268.09C1393.01 1213.94 1367.07 1155.17 1353.25 1104.76C1343.21 1068.14 1336.3 1026.02 1343.75 984.308C1351.85 939.008 1376.1 899.042 1418.27 870.586C1453.77 846.638 1501.95 855.998 1525.9 891.492C1549.85 926.987 1540.49 975.174 1504.99 999.122C1498.63 1003.42 1497.34 1006.3 1496.39 1011.58C1494.81 1020.46 1495.36 1036.67 1502.79 1063.76C1513.43 1102.59 1531.69 1143.91 1553.2 1192.57C1563.57 1216.03 1574.7 1241.2 1586.09 1268.61C1617.63 1344.56 1650.68 1437.69 1642.34 1527.81C1637.96 1575.12 1622.23 1621.96 1589.96 1664.27C1558.06 1706.09 1513.08 1739.48 1456.12 1765.33C1353.22 1812.03 1257.48 1822.27 1173.61 1792.3C1089.98 1762.42 1032.34 1697.64 995.048 1623.22C922.081 1477.61 914.495 1272.41 948.144 1100.23C971.634 980.028 932.138 866.683 869.079 799.889C837.856 766.817 803.161 747.44 770.076 741.191C738.311 735.191 703.093 740.223 665.573 764.63C621.833 793.083 599.107 821.647 587.345 847.713C575.553 873.846 572.011 903.616 576.744 938.956Z" fill="black"/>
</mask>
<g mask="url(#mask0_1_148)">
<g filter="url(#filter1_f_1_148)">
<path d="M587.783 1208.54C475.311 1021.84 374.464 813.738 589.182 674.061C803.899 534.384 1046.57 800.653 990.117 1089.52C926.618 1414.44 1027.34 1833.75 1389.96 1669.15C1775.15 1494.31 1233.35 1040.27 1427.52 909.273" stroke="url(#paint1_linear_1_148)" stroke-width="100" stroke-linecap="round"/>
</g>
</g>
</g>
<defs>
<filter id="filter0_f_1_148" x="0.0421143" y="0.818359" width="1608" height="1405" filterUnits="userSpaceOnUse" color-interpolation-filters="sRGB">
<feFlood flood-opacity="0" result="BackgroundImageFix"/>
<feBlend mode="normal" in="SourceGraphic" in2="BackgroundImageFix" result="shape"/>
<feGaussianBlur stdDeviation="200" result="effect1_foregroundBlur_1_148"/>
</filter>
<filter id="filter1_f_1_148" x="323.076" y="495.777" width="1348.93" height="1350.36" filterUnits="userSpaceOnUse" color-interpolation-filters="sRGB">
<feFlood flood-opacity="0" result="BackgroundImageFix"/>
<feBlend mode="normal" in="SourceGraphic" in2="BackgroundImageFix" result="shape"/>
<feGaussianBlur stdDeviation="45" result="effect1_foregroundBlur_1_148"/>
</filter>
<linearGradient id="paint0_linear_1_148" x1="1166.06" y1="687.501" x2="479.739" y2="710.753" gradientUnits="userSpaceOnUse">
<stop stop-color="#1E00DA"/>
<stop offset="1" stop-color="#BD00FF"/>
</linearGradient>
<linearGradient id="paint1_linear_1_148" x1="869.603" y1="636.759" x2="1241.46" y2="1762.04" gradientUnits="userSpaceOnUse">
<stop stop-color="#5A00CD"/>
<stop offset="1" stop-color="#FA00FF"/>
</linearGradient>
</defs>
</svg>
