<svg width="1440" height="1506" viewBox="0 0 1440 1506" fill="none" xmlns="http://www.w3.org/2000/svg">
<path fill-rule="evenodd" clip-rule="evenodd" d="M438.741 458.041C449.21 532.863 494.446 618.581 551.805 712.542C574.114 749.088 562.573 796.8 526.027 819.11C489.481 841.419 441.769 829.878 419.459 793.332C363.25 701.253 300.666 590.2 285.181 479.527C277.145 422.091 281.268 361.953 307.1 303.796C332.961 245.572 377.854 195.48 441.229 153.721C510.799 107.88 586.349 93.3717 658.789 106.614C729.907 119.614 792.84 158.3 842.373 210.152C940.822 313.211 995.401 477.114 963.433 645.969C934.482 798.889 946.491 965.74 999.279 1069.55C1024.86 1119.85 1056.59 1149.15 1091.93 1161.54C1127.01 1173.85 1179.85 1174.46 1258.05 1138.41C1297.29 1120.32 1319.52 1101.14 1332.37 1084.07C1344.86 1067.5 1351.41 1049.13 1353.31 1027.23C1357.49 978.921 1339.09 917.685 1307.16 842.076C1299.24 823.314 1290.19 803.116 1280.82 782.229C1256.61 728.22 1230.33 669.602 1216.21 619.278C1205.95 582.709 1198.8 540.638 1206 498.88C1213.83 453.533 1237.84 413.425 1279.85 384.721C1315.21 360.565 1363.45 369.641 1387.6 404.994C1411.76 440.347 1402.68 488.588 1367.33 512.745C1360.99 517.077 1359.71 519.964 1358.8 525.256C1357.27 534.138 1357.92 550.353 1365.5 577.399C1376.38 616.161 1394.88 657.37 1416.68 705.908C1427.18 729.305 1438.46 754.404 1450.01 781.754C1482 857.51 1515.6 950.449 1507.78 1040.61C1503.68 1087.95 1488.23 1134.89 1456.21 1177.38C1424.56 1219.39 1379.77 1253.04 1322.97 1279.22C1220.34 1326.54 1124.67 1337.34 1040.62 1307.86C956.816 1278.48 898.793 1214.03 861.065 1139.83C787.242 994.651 778.449 789.501 811.084 617.125C833.866 496.79 793.704 383.679 730.253 317.257C698.836 284.369 664.028 265.197 630.906 259.142C599.107 253.329 563.919 258.568 526.543 283.196C482.972 311.906 460.414 340.603 448.806 366.738C437.168 392.94 433.801 422.73 438.741 458.041Z" fill="#161616"/>
<mask id="mask0_1_75" style="mask-type:alpha" maskUnits="userSpaceOnUse" x="281" y="101" width="1228" height="1224">
<path fill-rule="evenodd" clip-rule="evenodd" d="M438.741 458.041C449.21 532.863 494.446 618.581 551.805 712.542C574.114 749.088 562.573 796.8 526.027 819.11C489.481 841.419 441.769 829.878 419.459 793.332C363.25 701.253 300.666 590.2 285.181 479.527C277.145 422.091 281.268 361.953 307.1 303.796C332.961 245.572 377.854 195.48 441.229 153.721C510.799 107.88 586.349 93.3717 658.789 106.614C729.907 119.614 792.84 158.3 842.373 210.152C940.822 313.211 995.401 477.114 963.433 645.969C934.482 798.889 946.491 965.74 999.279 1069.55C1024.86 1119.85 1056.59 1149.15 1091.93 1161.54C1127.01 1173.85 1179.85 1174.46 1258.05 1138.41C1297.29 1120.32 1319.52 1101.14 1332.37 1084.07C1344.86 1067.5 1351.41 1049.13 1353.31 1027.23C1357.49 978.921 1339.09 917.685 1307.16 842.076C1299.24 823.314 1290.19 803.116 1280.82 782.229C1256.61 728.22 1230.33 669.602 1216.21 619.278C1205.95 582.709 1198.8 540.638 1206 498.88C1213.83 453.533 1237.84 413.425 1279.85 384.721C1315.21 360.565 1363.45 369.641 1387.6 404.994C1411.76 440.347 1402.68 488.588 1367.33 512.745C1360.99 517.077 1359.71 519.964 1358.8 525.256C1357.27 534.138 1357.92 550.353 1365.5 577.399C1376.38 616.161 1394.88 657.37 1416.68 705.908C1427.18 729.305 1438.46 754.404 1450.01 781.754C1482 857.51 1515.6 950.449 1507.78 1040.61C1503.68 1087.95 1488.23 1134.89 1456.21 1177.38C1424.56 1219.39 1379.77 1253.04 1322.97 1279.22C1220.34 1326.54 1124.67 1337.34 1040.62 1307.86C956.816 1278.48 898.793 1214.03 861.065 1139.83C787.242 994.651 778.449 789.501 811.084 617.125C833.866 496.79 793.704 383.679 730.253 317.257C698.836 284.369 664.028 265.197 630.906 259.142C599.107 253.329 563.919 258.568 526.543 283.196C482.972 311.906 460.414 340.603 448.806 366.738C437.168 392.94 433.801 422.73 438.741 458.041Z" fill="black"/>
</mask>
<g mask="url(#mask0_1_75)">
<g filter="url(#filter0_f_1_75)">
<path d="M451.366 727.557C337.798 541.516 235.729 334.016 449.62 193.078C663.512 52.1403 907.743 316.976 852.993 606.167C791.407 931.463 894.597 1350.17 1256.24 1183.44C1640.39 1006.33 1095.94 555.495 1289.33 423.353" stroke="url(#paint0_linear_1_75)" stroke-width="100" stroke-linecap="round"/>
</g>
</g>
<rect x="676.87" y="788.683" width="398.493" height="417.875" transform="rotate(156.527 676.87 788.683)" fill="url(#paint1_linear_1_75)"/>
<rect x="1092.63" y="360.508" width="398.493" height="417.875" transform="rotate(-8.4727 1092.63 360.508)" fill="url(#paint2_linear_1_75)"/>
<g opacity="0.6" filter="url(#filter1_f_1_75)">
<ellipse cx="654" cy="978.5" rx="431" ry="354.5" fill="url(#paint3_linear_1_75)"/>
</g>
<defs>
<filter id="filter0_f_1_75" x="184.75" y="14.0708" width="1352.39" height="1347.24" filterUnits="userSpaceOnUse" color-interpolation-filters="sRGB">
<feFlood flood-opacity="0" result="BackgroundImageFix"/>
<feBlend mode="normal" in="SourceGraphic" in2="BackgroundImageFix" result="shape"/>
<feGaussianBlur stdDeviation="45" result="effect1_foregroundBlur_1_75"/>
</filter>
<filter id="filter1_f_1_75" x="-177" y="224" width="1662" height="1509" filterUnits="userSpaceOnUse" color-interpolation-filters="sRGB">
<feFlood flood-opacity="0" result="BackgroundImageFix"/>
<feBlend mode="normal" in="SourceGraphic" in2="BackgroundImageFix" result="shape"/>
<feGaussianBlur stdDeviation="200" result="effect1_foregroundBlur_1_75"/>
</filter>
<linearGradient id="paint0_linear_1_75" x1="729.817" y1="154.126" x2="1108.29" y2="1277.2" gradientUnits="userSpaceOnUse">
<stop stop-color="#5A00CD"/>
<stop offset="1" stop-color="#FA00FF"/>
</linearGradient>
<linearGradient id="paint1_linear_1_75" x1="876.117" y1="788.683" x2="876.117" y2="1206.56" gradientUnits="userSpaceOnUse">
<stop stop-color="#111111"/>
<stop offset="1" stop-color="#111111" stop-opacity="0"/>
</linearGradient>
<linearGradient id="paint2_linear_1_75" x1="1291.88" y1="360.508" x2="1291.88" y2="778.384" gradientUnits="userSpaceOnUse">
<stop stop-color="#111111"/>
<stop offset="1" stop-color="#111111" stop-opacity="0"/>
</linearGradient>
<linearGradient id="paint3_linear_1_75" x1="1040.21" y1="959.964" x2="307.88" y2="982.55" gradientUnits="userSpaceOnUse">
<stop stop-color="#1E00DA"/>
<stop offset="1" stop-color="#BD00FF"/>
</linearGradient>
</defs>
</svg>
